<svg xmlns="http://www.w3.org/2000/svg" width="82" height="61" viewBox="0 0 82 61" shape-rendering="crispEdges" data-template="driving-terrain-local-desert" data-anchor-x="1" data-anchor-y="43">
<title>Ashline driving template: Desert</title>
<g id="sky">
<polygon points="1,1 81,1 81,23 1,23" fill="#c4c5af"/>
</g>
<g id="far">
<polygon points="1,21 11,21 11,23 1,23" fill="#a69a7b"/>
<polygon points="11,17 21,17 21,23 11,23" fill="#a69a7b"/>
<polygon points="21,20 31,20 31,23 21,23" fill="#a69a7b"/>
<polygon points="31,17 41,17 41,23 31,23" fill="#a69a7b"/>
<polygon points="41,19 51,19 51,23 41,23" fill="#a69a7b"/>
<polygon points="51,18 61,18 61,23 51,23" fill="#a69a7b"/>
<polygon points="61,18 71,18 71,23 61,23" fill="#a69a7b"/>
<polygon points="71,18 81,18 81,23 71,23" fill="#a69a7b"/>
</g>
<g id="ground">
<polygon points="1,23 81,23 81,60 1,60" fill="#897b59"/>
</g>
<g id="near">
<polygon points="1,54 81,54 81,60 1,60" fill="#a18c60"/>
</g>
<g id="detail">
<polygon points="5,27 6,27 6,29 5,29" fill="#a69a66"/>
<polygon points="6,28 7,28 7,29 6,29" fill="#a69a66"/>
<polygon points="17,37 18,37 18,39 17,39" fill="#a69a66"/>
<polygon points="18,37 19,37 19,39 18,39" fill="#a69a66"/>
<polygon points="29,46 30,46 30,49 29,49" fill="#a69a66"/>
<polygon points="30,48 31,48 31,49 30,49" fill="#a69a66"/>
<polygon points="41,32 42,32 42,34 41,34" fill="#a69a66"/>
<polygon points="42,32 43,32 43,34 42,34" fill="#a69a66"/>
<polygon points="53,42 54,42 54,44 53,44" fill="#a69a66"/>
<polygon points="54,43 55,43 55,44 54,44" fill="#a69a66"/>
<polygon points="65,26 66,26 66,29 65,29" fill="#a69a66"/>
<polygon points="66,27 67,27 67,29 66,29" fill="#a69a66"/>
</g>
<g id="vegetation-scrub">
<polygon points="4,26 3,23 6,24 7,22 8,26" fill="#a69a66"/>
<polygon points="8,26 7,23 10,24 11,22 12,26" fill="#a69a66"/>
<polygon points="11,26 10,23 13,24 14,22 15,26" fill="#a69a66"/>
</g>
<g id="vegetation-scrub">
<polygon points="20,29 19,26 22,27 23,25 24,29" fill="#a69a66"/>
<polygon points="24,29 23,26 26,27 27,25 28,29" fill="#a69a66"/>
<polygon points="27,29 26,26 29,27 30,25 31,29" fill="#a69a66"/>
</g>
<g id="vegetation-scrub">
<polygon points="38,26 37,23 40,24 41,22 42,26" fill="#a69a66"/>
<polygon points="42,26 41,23 44,24 45,22 46,26" fill="#a69a66"/>
<polygon points="45,26 44,23 47,24 48,22 49,26" fill="#a69a66"/>
</g>
<g id="vegetation-scrub">
<polygon points="54,29 53,26 56,27 57,25 58,29" fill="#a69a66"/>
<polygon points="58,29 57,26 60,27 61,25 62,29" fill="#a69a66"/>
<polygon points="61,29 60,26 63,27 64,25 65,29" fill="#a69a66"/>
</g>
<g id="vegetation-scrub">
<polygon points="65,26 64,23 67,24 68,22 69,26" fill="#a69a66"/>
<polygon points="69,26 68,23 71,24 72,22 73,26" fill="#a69a66"/>
<polygon points="72,26 71,23 74,24 75,22 76,26" fill="#a69a66"/>
</g>
</svg>
