<svg xmlns="http://www.w3.org/2000/svg" width="50" height="22" viewBox="0 0 50 22" shape-rendering="crispEdges" data-template="driving-car-observation" data-anchor-x="2" data-anchor-y="17" data-length-m="23">
<title>Ashline driving template: Observation</title>
<g id="silhouette-underlays">
</g>
<g id="coupler">
<path d="M1,15 2,15 2,16 1,16Z" fill="#7f786a"/>
<path d="M1,13 2,13 2,15 1,15Z" fill="#bbb09a"/>
</g>
<g id="trucks">
</g>
<g id="wheels">
<path d="M8,19 8,20 7,21ZM8,19 7,21 6,21ZM6.5,20 7,20 6,21 5,21ZM6.5,20 8,19 7,20ZM6.5,20 8,19 7,20ZM6.5,20 8,19 7,20ZM6.5,20 8,19 7,20ZM6.5,20 8,19 7,20ZM6.5,20 8,19 7,20ZM7,20 7,19.66667 8,19 7,20ZM4,20 6.5,20 5,21 4,20ZM8,19 6.5,20 4,20 4,20ZM8,19 6.5,20 4,20 4,20ZM5,19.75 5,20 4,20 4,20ZM5,19.75 8,19 6.5,20 5,20ZM5,19.75 8,19 6.5,20 5,20ZM5,19.75 8,19 6.5,20 5,20ZM5,19.75 8,19 6.5,20 5,20ZM7,19.25 8,19 7,19.66667ZM8,19 4,20 4,19ZM8,19 4,20 4,19ZM5,19 5,19.75 4,20 4,19ZM5,19 8,19 5,19.75ZM5,19 8,19 5,19.75ZM5,19 8,19 5,19.75ZM5,19 8,19 5,19.75ZM7,19 8,19 7,19.25ZM8,19 4,19 4,18ZM8,19 4,18 5,18ZM5,18 6,17 7,18ZM8,19 5,18 7,18ZM7,18 8,18 8,19ZM12,19 12,20 11,21ZM12,19 11,21 10,21ZM10.5,20 11,20 10,21 9,21ZM10.5,20 12,19 11,20ZM10.5,20 12,19 11,20ZM10.5,20 12,19 11,20ZM10.5,20 12,19 11,20ZM10.5,20 12,19 11,20ZM10.5,20 12,19 11,20ZM11,20 11,19.66667 12,19 11,20ZM8,20 10.5,20 9,21 8,20ZM12,19 10.5,20 8,20 8,20ZM12,19 10.5,20 8,20 8,20ZM9,19.75 9,20 8,20 8,20ZM9,19.75 12,19 10.5,20 9,20ZM9,19.75 12,19 10.5,20 9,20ZM9,19.75 12,19 10.5,20 9,20ZM9,19.75 12,19 10.5,20 9,20ZM11,19.25 12,19 11,19.66667ZM12,19 8,20 8,19ZM12,19 8,20 8,19ZM9,19 9,19.75 8,20 8,19ZM9,19 12,19 9,19.75ZM9,19 12,19 9,19.75ZM9,19 12,19 9,19.75ZM9,19 12,19 9,19.75ZM11,19 12,19 11,19.25ZM12,19 8,19 8,18ZM12,19 8,18 9,18ZM9,18 10,17 11,18ZM12,19 9,18 11,18ZM11,18 12,18 12,19Z" fill="#383c3b"/>
<path d="M7,20 6,20 6,20 6,20 5,20 5,19 5,19 6,19 6,19 6,19 7,19 7,19ZM11,20 10,20 10,20 10,20 9,20 9,19 9,19 10,19 10,19 10,19 11,19 11,19Z" fill="#8c3b2e"/>
</g>
<g id="trucks">
</g>
<g id="wheels">
<path d="M42,19 42,20 41,21ZM42,19 41,21 40,21ZM40.5,20 41,20 40,21 39,21ZM40.5,20 42,19 41,20ZM40.5,20 42,19 41,20ZM40.5,20 42,19 41,20ZM40.5,20 42,19 41,20ZM40.5,20 42,19 41,20ZM40.5,20 42,19 41,20ZM41,20 41,19.66667 42,19 41,20ZM38,20 40.5,20 39,21 38,20ZM42,19 40.5,20 38,20 38,20ZM42,19 40.5,20 38,20 38,20ZM39,19.75 39,20 38,20 38,20ZM39,19.75 42,19 40.5,20 39,20ZM39,19.75 42,19 40.5,20 39,20ZM39,19.75 42,19 40.5,20 39,20ZM39,19.75 42,19 40.5,20 39,20ZM41,19.25 42,19 41,19.66667ZM42,19 38,20 38,19ZM42,19 38,20 38,19ZM39,19 39,19.75 38,20 38,19ZM39,19 42,19 39,19.75ZM39,19 42,19 39,19.75ZM39,19 42,19 39,19.75ZM39,19 42,19 39,19.75ZM41,19 42,19 41,19.25ZM42,19 38,19 38,18ZM42,19 38,18 39,18ZM39,18 40,17 41,18ZM42,19 39,18 41,18ZM41,18 42,18 42,19ZM46,19 46,20 45,21ZM46,19 45,21 44,21ZM44.5,20 45,20 44,21 43,21ZM44.5,20 46,19 45,20ZM44.5,20 46,19 45,20ZM44.5,20 46,19 45,20ZM44.5,20 46,19 45,20ZM44.5,20 46,19 45,20ZM44.5,20 46,19 45,20ZM45,20 45,19.66667 46,19 45,20ZM42,20 44.5,20 43,21 42,20ZM46,19 44.5,20 42,20 42,20ZM46,19 44.5,20 42,20 42,20ZM43,19.75 43,20 42,20 42,20ZM43,19.75 46,19 44.5,20 43,20ZM43,19.75 46,19 44.5,20 43,20ZM43,19.75 46,19 44.5,20 43,20ZM43,19.75 46,19 44.5,20 43,20ZM45,19.25 46,19 45,19.66667ZM46,19 42,20 42,19ZM46,19 42,20 42,19ZM43,19 43,19.75 42,20 42,19ZM43,19 46,19 43,19.75ZM43,19 46,19 43,19.75ZM43,19 46,19 43,19.75ZM43,19 46,19 43,19.75ZM45,19 46,19 45,19.25ZM46,19 42,19 42,18ZM46,19 42,18 43,18ZM43,18 44,17 45,18ZM46,19 43,18 45,18ZM45,18 46,18 46,19Z" fill="#383c3b"/>
<path d="M41,20 40,20 40,20 40,20 39,20 39,19 39,19 40,19 40,19 40,19 41,19 41,19ZM45,20 44,20 44,20 44,20 43,20 43,19 43,19 44,19 44,19 44,19 45,19 45,19Z" fill="#8c3b2e"/>
</g>
<g id="underframe">
<path d="M2,17 6,17 5,18 2,18ZM6,17 6,17 10,17 9,18 7,18ZM10,17 10,17 40,17 39,18 11,18ZM40,17 40,17 44,17 43,18 41,18ZM44,17 44,17 48,17 48,18 45,18Z" fill="#232626"/>
<path d="M2,10 3,10 3,17 2,17ZM47,10 48,10 48,17 47,17Z" fill="#454440"/>
</g>
<g id="body">
<path d="M3,11 3,10 47,10 47,11ZM45,15 45,11 47,11 47,15ZM46,15 47,15 47,17 46,17ZM45,16 46,16 46,17 45,17ZM41,15 41,11 44,11 44,15ZM41,16 44,16 44,17 41,17ZM35,15 35,13 41,13 41,15ZM35,16 41,16 41,17 35,17ZM37,13 35,13 35,11 37,11ZM29,15 29,13 35,13 35,15ZM29,16 35,16 35,17 29,17ZM31,13 29,13 29,11 31,11ZM23,15 23,13 29,13 29,15ZM23,16 29,16 29,17 23,17ZM25,13 23,13 23,11 25,11ZM17,15 17,13 23,13 23,15ZM17,16 23,16 23,17 17,17ZM19,13 17,13 17,11 19,11ZM11,15 11,13 17,13 17,15ZM11,16 17,16 17,17 11,17ZM13,13 11,13 11,11 13,11ZM5,15 5,13 11,13 11,15ZM5,16 11,16 11,17 5,17ZM3,13 4,13 4,17 3,17ZM7,13 5,13 5,11 7,11ZM4,13 3,13 3,11 4,11Z" fill="#626951"/>
<path d="M33,7 33,3 47,3 47,7ZM17,7 3,7 3,3 17,3ZM33,7 47,7 47,10 33,10ZM3,9 33,9 33,10 3,10ZM17,9 3,9 3,7 17,7Z" fill="#92968a"/>
</g>
<g id="windows">
<path d="M7,11 11,11 11,13 7,13ZM13,11 17,11 17,13 13,13ZM19,11 23,11 23,13 19,13ZM25,11 29,11 29,13 25,13ZM31,11 35,11 35,13 31,13ZM37,11 41,11 41,13 37,13Z" fill="#273c3e"/>
</g>
<g id="doors">
<path d="M4,15 4,11 5,11 5,15ZM4,16 5,16 5,17 4,17ZM44,15 44,11 45,11 45,15ZM44,16 45,16 45,17 44,17Z" fill="#b8b6a0"/>
<path d="M4,15 46,15 46,16 4,16Z" fill="#c6975d"/>
</g>
<g id="glass-roof">
<path d="M17,7 33,7 33,9 17,9Z" fill="#647e80"/>
<path d="M17,1 33,1 33,7 17,7Z" fill="#a3b9b7"/>
</g>
<g id="coupler">
<path d="M48,15 49,15 49,16 48,16Z" fill="#7f786a"/>
<path d="M48,13 49,13 49,15 48,15Z" fill="#bbb09a"/>
</g>
</svg>
