<svg xmlns="http://www.w3.org/2000/svg" width="82" height="61" viewBox="0 0 82 61" shape-rendering="crispEdges" data-template="driving-terrain-local-alpine" data-anchor-x="1" data-anchor-y="43">
<title>Ashline driving template: Alpine</title>
<g id="sky">
<polygon points="1,1 81,1 81,23 1,23" fill="#afc3cd"/>
</g>
<g id="far">
<polygon points="1,21 11,21 11,23 1,23" fill="#88938f"/>
<polygon points="11,17 21,17 21,23 11,23" fill="#88938f"/>
<polygon points="21,20 31,20 31,23 21,23" fill="#88938f"/>
<polygon points="31,17 41,17 41,23 31,23" fill="#88938f"/>
<polygon points="41,19 51,19 51,23 41,23" fill="#88938f"/>
<polygon points="51,18 61,18 61,23 51,23" fill="#88938f"/>
<polygon points="61,18 71,18 71,23 61,23" fill="#88938f"/>
<polygon points="71,18 81,18 81,23 71,23" fill="#88938f"/>
</g>
<g id="ground">
<polygon points="1,23 81,23 81,60 1,60" fill="#73766c"/>
</g>
<g id="near">
<polygon points="1,54 81,54 81,60 1,60" fill="#838378"/>
</g>
<g id="detail">
<polygon points="5,27 6,27 6,29 5,29" fill="#a7aaa0"/>
<polygon points="6,28 7,28 7,29 6,29" fill="#a7aaa0"/>
<polygon points="17,37 18,37 18,39 17,39" fill="#a7aaa0"/>
<polygon points="18,37 19,37 19,39 18,39" fill="#a7aaa0"/>
<polygon points="29,46 30,46 30,49 29,49" fill="#a7aaa0"/>
<polygon points="30,48 31,48 31,49 30,49" fill="#a7aaa0"/>
<polygon points="41,32 42,32 42,34 41,34" fill="#a7aaa0"/>
<polygon points="42,32 43,32 43,34 42,34" fill="#a7aaa0"/>
<polygon points="53,42 54,42 54,44 53,44" fill="#a7aaa0"/>
<polygon points="54,43 55,43 55,44 54,44" fill="#a7aaa0"/>
<polygon points="65,26 66,26 66,29 65,29" fill="#a7aaa0"/>
<polygon points="66,27 67,27 67,29 66,29" fill="#a7aaa0"/>
</g>
<g id="vegetation-rock">
<polygon points="6,26 8,22 14,21 18,24 18,26" fill="#747b78"/>
<polygon points="8,22 14,21 18,24 13,23" fill="#a7aaa0"/>
</g>
<g id="vegetation-moss">
<polygon points="25,29 24,28 27,28 28,27 29,29" fill="#9c9a71"/>
<polygon points="29,29 28,28 31,28 32,27 33,29" fill="#9c9a71"/>
<polygon points="32,29 31,28 34,28 35,27 36,29" fill="#9c9a71"/>
</g>
<g id="vegetation-rock">
<polygon points="44,26 46,22 52,21 56,24 56,26" fill="#747b78"/>
<polygon points="46,22 52,21 56,24 51,23" fill="#a7aaa0"/>
</g>
<g id="vegetation-moss">
<polygon points="63,29 62,28 65,28 66,27 67,29" fill="#9c9a71"/>
<polygon points="67,29 66,28 69,28 70,27 71,29" fill="#9c9a71"/>
<polygon points="70,29 69,28 72,28 73,27 74,29" fill="#9c9a71"/>
</g>
</svg>
