<svg xmlns="http://www.w3.org/2000/svg" width="38" height="22" viewBox="0 0 38 22" shape-rendering="crispEdges" data-template="driving-loco-diesel-cab-unit-left" data-anchor-x="2" data-anchor-y="17" data-length-m="17">
<title>Ashline driving template: Four axle cab diesel, United States 1950s, facing left</title>
<g id="coupler">
<polygon points="1,16 3,16 3,15 1,15" fill="#7f786a"/>
<polygon points="1,13 3,13 3,15 1,15" fill="#bbb09a"/>
</g>
<g id="running-gear">
<polygon points="7,19 7,18 6,17 4,17 3,18 3,19 3,20 4,21 6,21 7,20" fill="#242b2b"/>
<polygon points="6,19 6,19 5,18 5,18 4,19 4,19 4,20 5,20 5,20 6,20" fill="#95816a"/>
<polygon points="11,19 11,18 10,17 8,17 7,18 7,19 7,20 8,21 10,21 11,20" fill="#242b2b"/>
<polygon points="10,19 10,19 9,18 9,18 8,19 8,19 8,20 9,20 9,20 10,20" fill="#95816a"/>
<polygon points="31,19 31,18 30,17 28,17 27,18 27,19 27,20 28,21 30,21 31,20" fill="#242b2b"/>
<polygon points="30,19 30,19 29,18 29,18 28,19 28,19 28,20 29,20 29,20 30,20" fill="#95816a"/>
<polygon points="35,19 35,18 34,17 32,17 31,18 31,19 31,20 32,21 34,21 35,20" fill="#242b2b"/>
<polygon points="34,19 34,19 33,18 33,18 32,19 32,19 32,20 33,20 33,20 34,20" fill="#95816a"/>
</g>
<g id="frame">
<polygon points="2,17 36,17 36,16 2,16" fill="#343c35"/>
<polygon points="2,10 36,10 36,16 2,16" fill="#747764"/>
</g>
<g id="diesel-body">
</g>
<g id="nose">
<polygon points="10,17 3,17 3,13 6,9 10,9" fill="#7e8d88"/>
<polygon points="10,1 6,1 3,7 3,13 6,9 10,9" fill="#b3b3a1"/>
<polygon points="9,12 6,12 7,10 9,10" fill="#dec38a"/>
<polygon points="3,11 4,11 4,9 3,9" fill="#bd6b46"/>
<polygon points="3,8 4,8 4,9 3,9" fill="#bd6b46"/>
</g>
<g id="full-body">
<polygon points="10,16 34,16 34,9 10,9" fill="#7e8d88"/>
<polygon points="10,3 34,3 34,9 10,9" fill="#b3b3a1"/>
<polygon points="31,15 32,15 32,9 31,9" fill="#303e3c"/>
<polygon points="31,9 32,9 32,9 31,9" fill="#303e3c"/>
<polygon points="28,15 29,15 29,9 28,9" fill="#303e3c"/>
<polygon points="28,9 29,9 29,9 28,9" fill="#303e3c"/>
<polygon points="25,15 26,15 26,9 25,9" fill="#303e3c"/>
<polygon points="25,9 26,9 26,9 25,9" fill="#303e3c"/>
<polygon points="22,15 23,15 23,9 22,9" fill="#303e3c"/>
<polygon points="22,9 23,9 23,9 22,9" fill="#303e3c"/>
<polygon points="19,15 20,15 20,9 19,9" fill="#303e3c"/>
<polygon points="19,9 20,9 20,9 19,9" fill="#303e3c"/>
<polygon points="16,15 17,15 17,9 16,9" fill="#303e3c"/>
<polygon points="16,9 17,9 17,9 16,9" fill="#303e3c"/>
<polygon points="13,15 14,15 14,9 13,9" fill="#303e3c"/>
<polygon points="13,9 14,9 14,9 13,9" fill="#303e3c"/>
<polygon points="30,6 32,6 32,5 30,5" fill="#333f37"/>
<polygon points="30,4 32,4 32,5 30,5" fill="#515950"/>
</g>
<g id="stripe">
<polygon points="3,17 35,17 35,16 3,16" fill="#bd6b46"/>
<polygon points="3,16 35,16 35,16 3,16" fill="#bd6b46"/>
</g>
<g id="coupler">
<polygon points="35,16 37,16 37,15 35,15" fill="#7f786a"/>
<polygon points="35,13 37,13 37,15 35,15" fill="#bbb09a"/>
</g>
</svg>
