<svg xmlns="http://www.w3.org/2000/svg" width="40" height="33" viewBox="0 0 40 33" shape-rendering="crispEdges" data-template="railyard-car-hopper-cylindrical" data-anchor-x="6" data-anchor-y="16" data-length-m="14">
<title>Ashline rail yard template: Cylindrical grain hopper, Canada 1970s</title>
<g id="coupler">
<polygon points="4,12 6,11 8,12 8,13 6,14 4,13" fill="#5f5a50"/>
<polygon points="4,13 6,14 6,13 4,12" fill="#7f786a"/>
<polygon points="8,13 6,14 6,13 8,12" fill="#5f5a50"/>
<polygon points="6,11 8,12 6,13 4,12" fill="#bbb09a"/>
</g>
<g id="trucks">
<polygon points="3,18 15,12 21,15 21,18 9,24 3,21" fill="#1a1e20"/>
<polygon points="3,21 9,24 9,21 3,18" fill="#111416"/>
<polygon points="21,18 9,24 9,21 21,15" fill="#1a1e20"/>
<polygon points="15,12 21,15 9,21 3,18" fill="#383c3b"/>
<polygon points="19,26 31,20 37,23 37,26 25,32 19,29" fill="#1a1e20"/>
<polygon points="19,29 25,32 25,29 19,26" fill="#111416"/>
<polygon points="37,26 25,32 25,29 37,23" fill="#1a1e20"/>
<polygon points="31,20 37,23 25,29 19,26" fill="#383c3b"/>
</g>
<g id="underframe">
<polygon points="1,14 11,9 39,23 39,25 29,30 1,16" fill="#1e2022"/>
<polygon points="1,16 29,30 29,28 1,14" fill="#232626"/>
<polygon points="39,25 29,30 29,28 39,23" fill="#1e2022"/>
<polygon points="11,9 39,23 29,28 1,14" fill="#454440"/>
</g>
<g id="body">
<polygon points="4,5 12,1 36,13 36,20 28,24 4,12" fill="#41483f"/>
<polygon points="4,12 28,24 28,17 4,5" fill="#917337"/>
<polygon points="36,20 28,24 28,17 36,13" fill="#41483f"/>
<polygon points="12,1 36,13 28,17 4,5" fill="#c2a15e"/>
<polygon points="6,13 12,16 11,19 9,18" fill="#917337"/>
<polygon points="9,4 11,3 15,5 15,6 13,7 9,5" fill="#41483f"/>
<polygon points="9,5 13,7 13,6 9,4" fill="#917337"/>
<polygon points="15,6 13,7 13,6 15,5" fill="#41483f"/>
<polygon points="11,3 15,5 13,6 9,4" fill="#d5bd89"/>
<polygon points="14,17 20,20 19,23 17,22" fill="#917337"/>
<polygon points="17,8 19,7 23,9 23,10 21,11 17,9" fill="#41483f"/>
<polygon points="17,9 21,11 21,10 17,8" fill="#917337"/>
<polygon points="23,10 21,11 21,10 23,9" fill="#41483f"/>
<polygon points="19,7 23,9 21,10 17,8" fill="#d5bd89"/>
<polygon points="22,21 28,24 27,27 25,26" fill="#917337"/>
<polygon points="25,12 27,11 31,13 31,14 29,15 25,13" fill="#41483f"/>
<polygon points="25,13 29,15 29,14 25,12" fill="#917337"/>
<polygon points="31,14 29,15 29,14 31,13" fill="#41483f"/>
<polygon points="27,11 31,13 29,14 25,12" fill="#d5bd89"/>
<polygon points="12,1 36,13 32,13 8,1" fill="#c2a15e"/>
<polygon points="8,1 32,13 28,17 4,5" fill="#c2a15e"/>
</g>
<g id="coupler">
<polygon points="32,26 34,25 36,26 36,27 34,28 32,27" fill="#5f5a50"/>
<polygon points="32,27 34,28 34,27 32,26" fill="#7f786a"/>
<polygon points="36,27 34,28 34,27 36,26" fill="#5f5a50"/>
<polygon points="34,25 36,26 34,27 32,26" fill="#bbb09a"/>
</g>
</svg>
