<svg xmlns="http://www.w3.org/2000/svg" width="98" height="52" viewBox="0 0 98 52" shape-rendering="crispEdges" data-template="railyard-track-y-merge-both" data-anchor-x="49" data-anchor-y="25" data-length-m="20">
<title>Ashline rail yard template: Y switch joining from both neighbouring tracks</title>
<g id="diagonal-ballast">
<polygon points="97,1 97,41 81,49 81,9" fill="#494c42"/>
</g>
<g id="diagonal-ties">
<polygon points="83,9 83,11 95,11 95,9" fill="#75654d"/>
<polygon points="83,14 83,16 95,16 95,14" fill="#75654d"/>
<polygon points="83,19 83,21 95,21 95,19" fill="#75654d"/>
<polygon points="83,24 83,26 95,26 95,24" fill="#75654d"/>
<polygon points="83,29 83,31 95,31 95,29" fill="#75654d"/>
<polygon points="83,34 83,36 95,36 95,34" fill="#75654d"/>
<polygon points="83,39 83,41 95,41 95,39" fill="#75654d"/>
</g>
<g id="diagonal-rails">
<polygon points="91,3 93,3 93,44 91,44" fill="#222a2b"/>
<polygon points="91,3 92,3 92,43 91,43" fill="#b8b6a0"/>
<polygon points="85,6 87,6 87,47 85,47" fill="#222a2b"/>
<polygon points="85,6 86,6 86,46 85,46" fill="#b8b6a0"/>
</g>
<g id="diagonal-up-ballast">
<polygon points="13,39 93,39 85,51 5,51" fill="#494c42"/>
<polygon points="9,45 13,39 17,41" fill="#494c42"/>
<polygon points="89,45 93,39 97,41" fill="#494c42"/>
<polygon points="9,45 5,51 1,49" fill="#494c42"/>
<polygon points="89,45 85,51 81,49" fill="#494c42"/>
</g>
<g id="diagonal-up-ties">
<polygon points="12,41 15,41 15,49 12,49" fill="#75654d"/>
<polygon points="20,41 23,41 23,49 20,49" fill="#75654d"/>
<polygon points="28,41 31,41 31,49 28,49" fill="#75654d"/>
<polygon points="36,41 39,41 39,49 36,49" fill="#75654d"/>
<polygon points="44,41 47,41 47,49 44,49" fill="#75654d"/>
<polygon points="52,41 55,41 55,49 52,49" fill="#75654d"/>
<polygon points="60,41 63,41 63,49 60,49" fill="#75654d"/>
<polygon points="68,41 71,41 71,49 68,49" fill="#75654d"/>
<polygon points="76,41 79,41 79,49 76,49" fill="#75654d"/>
<polygon points="84,41 87,41 87,49 84,49" fill="#75654d"/>
</g>
<g id="diagonal-up-rails">
<polygon points="10,42 90,42 90,44 10,44" fill="#222a2b"/>
<polygon points="10,42 12,43 12,45 10,44" fill="#222a2b"/>
<polygon points="90,42 92,43 92,45 90,44" fill="#222a2b"/>
<polygon points="10,42 90,42 90,43 10,43" fill="#b8b6a0"/>
<polygon points="10,42 12,43 12,44 10,43" fill="#b8b6a0"/>
<polygon points="90,42 92,43 92,44 90,43" fill="#b8b6a0"/>
<polygon points="6,46 86,46 86,48 6,48" fill="#222a2b"/>
<polygon points="6,46 6,46 6,48 6,48" fill="#222a2b"/>
<polygon points="86,46 86,46 86,48 86,48" fill="#222a2b"/>
<polygon points="6,46 86,46 86,47 6,47" fill="#b8b6a0"/>
<polygon points="6,46 6,46 6,47 6,47" fill="#b8b6a0"/>
<polygon points="86,46 86,46 86,47 86,47" fill="#b8b6a0"/>
</g>
<g id="ballast">
<polygon points="57,21 97,41 81,49 41,29" fill="#494c42"/>
</g>
<g id="ties">
<polygon points="55,23 57,24 47,29 45,28" fill="#75654d"/>
<polygon points="60,26 62,27 52,32 50,31" fill="#75654d"/>
<polygon points="65,28 67,29 57,34 55,33" fill="#75654d"/>
<polygon points="70,31 72,32 62,37 60,36" fill="#75654d"/>
<polygon points="75,33 77,34 67,39 65,38" fill="#75654d"/>
<polygon points="80,36 82,37 72,42 70,41" fill="#75654d"/>
<polygon points="85,38 87,39 77,44 75,43" fill="#75654d"/>
<polygon points="90,41 92,42 82,47 80,46" fill="#75654d"/>
</g>
<g id="rails">
<polygon points="52,23 92,43 92,45 52,25" fill="#222a2b"/>
<polygon points="52,23 92,43 92,44 52,24" fill="#b8b6a0"/>
<polygon points="46,26 86,46 86,48 46,28" fill="#222a2b"/>
<polygon points="46,26 86,46 86,47 46,27" fill="#b8b6a0"/>
</g>
</svg>
