<svg xmlns="http://www.w3.org/2000/svg" width="54" height="41" viewBox="0 0 54 41" shape-rendering="crispEdges" data-template="railyard-loco-steam-streamliner-right" data-anchor-x="5" data-anchor-y="16" data-length-m="22">
<title>Ashline rail yard template: 4-6-2 streamlined steam engine, Britain 1930s, facing right</title>
<g id="coupler">
<polygon points="3,12 5,11 7,12 7,13 5,14 3,13" fill="#5f5a50"/>
<polygon points="3,13 5,14 5,13 3,12" fill="#7f786a"/>
<polygon points="7,13 5,14 5,13 7,12" fill="#5f5a50"/>
<polygon points="5,11 7,12 5,13 3,12" fill="#bbb09a"/>
</g>
<g id="running-gear">
<polygon points="4,19 4,18 3,17 2,17 2,17 1,18 2,19 2,20 3,20 4,20" fill="#242b2b"/>
<polygon points="3,19 3,18 3,18 3,18 2,18 2,18 2,19 3,19 3,19 3,19" fill="#95816a"/>
<polygon points="8,21 8,20 7,19 6,19 6,19 5,20 6,21 6,22 7,22 8,22" fill="#242b2b"/>
<polygon points="7,21 7,20 7,20 7,20 6,20 6,20 6,21 7,21 7,21 7,21" fill="#95816a"/>
<polygon points="19,27 19,26 18,25 17,24 17,25 16,25 17,26 17,27 18,28 19,28" fill="#242b2b"/>
<polygon points="18,26 18,26 18,26 18,25 17,25 17,26 17,26 18,27 18,27 18,27" fill="#95816a"/>
<polygon points="27,29 26,27 25,25 23,24 21,24 21,26 21,28 23,30 25,31 26,31" fill="#242b2b"/>
<polygon points="25,28 25,27 24,26 23,26 23,26 22,27 23,28 23,29 24,29 25,29" fill="#95816a"/>
<polygon points="33,32 32,30 31,28 29,27 27,27 27,29 27,31 29,33 31,34 32,34" fill="#242b2b"/>
<polygon points="31,31 31,30 30,29 29,29 29,29 28,30 29,31 29,32 30,32 31,32" fill="#95816a"/>
<polygon points="39,35 38,33 37,31 35,30 33,30 33,32 33,34 35,36 37,37 38,37" fill="#242b2b"/>
<polygon points="37,34 37,33 36,32 35,32 35,32 34,33 35,34 35,35 36,35 37,35" fill="#95816a"/>
<polygon points="40,37 40,36 39,35 38,35 38,35 37,36 38,37 38,38 39,38 40,38" fill="#242b2b"/>
<polygon points="39,37 39,36 39,36 39,36 38,36 38,36 38,37 39,37 39,37 39,37" fill="#95816a"/>
<polygon points="43,39 43,38 42,37 41,36 41,37 40,37 41,38 41,39 42,40 43,40" fill="#242b2b"/>
<polygon points="42,38 42,38 42,38 42,37 41,37 41,38 41,38 42,39 42,39 42,39" fill="#95816a"/>
</g>
<g id="frame">
<polygon points="1,13 9,9 53,31 53,32 45,36 1,14" fill="#41483f"/>
<polygon points="1,14 45,36 45,35 1,13" fill="#343c35"/>
<polygon points="53,32 45,36 45,35 53,31" fill="#41483f"/>
<polygon points="9,9 53,31 45,35 1,13" fill="#747764"/>
</g>
<g id="coupling-rods">
<polygon points="19,25 37,34 37,33 19,24" fill="#a0a395"/>
</g>
<g id="tender">
<polygon points="1,6 11,1 21,6 21,14 11,19 1,14" fill="#41483f"/>
<polygon points="1,14 11,19 11,11 1,6" fill="#375e76"/>
<polygon points="21,14 11,19 11,11 21,6" fill="#41483f"/>
<polygon points="11,1 21,6 11,11 1,6" fill="#7297a3"/>
<polygon points="5,5 11,2 17,5 17,6 11,9 5,6" fill="#41483f"/>
<polygon points="5,6 11,9 11,8 5,5" fill="#1d241e"/>
<polygon points="17,6 11,9 11,8 17,5" fill="#41483f"/>
<polygon points="11,2 17,5 11,8 5,5" fill="#30352e"/>
<polygon points="3,11 9,14 9,15 3,12" fill="#41483f"/>
<polygon points="3,12 9,15 9,14 3,11" fill="#cbb77e"/>
<polygon points="9,15 9,15 9,14 9,14" fill="#41483f"/>
<polygon points="3,11 9,14 9,14 3,11" fill="#cbb77e"/>
</g>
<g id="cab">
<polygon points="12,8 22,3 29,6 29,17 19,22 12,19" fill="#41483f"/>
<polygon points="12,19 19,22 19,11 12,8" fill="#375e76"/>
<polygon points="29,17 19,22 19,11 29,6" fill="#41483f"/>
<polygon points="22,3 29,6 19,11 12,8" fill="#7297a3"/>
<polygon points="13,13 17,15 17,12 13,10" fill="#dec38a"/>
<polygon points="22,3 17,3 24,7 29,6" fill="#7297a3"/>
<polygon points="17,3 12,8 19,11 24,7" fill="#547f92"/>
<polygon points="12,16 19,19 19,20 12,17" fill="#41483f"/>
<polygon points="12,17 19,20 19,19 12,16" fill="#cbb77e"/>
<polygon points="19,20 19,20 19,19 19,19" fill="#41483f"/>
<polygon points="12,16 19,19 19,19 12,16" fill="#cbb77e"/>
</g>
<g id="boiler">
</g>
<g id="streamlined-casing">
<polygon points="29,17 45,25 45,14 29,6" fill="#375e76"/>
<polygon points="45,25 49,27 49,18 45,14" fill="#375e76"/>
<polygon points="49,27 51,29 51,24 49,18" fill="#375e76"/>
<polygon points="51,29 51,30 51,29 51,24" fill="#375e76"/>
<polygon points="29,6 45,14 42,13 26,5" fill="#7297a3"/>
<polygon points="45,14 49,18 46,17 42,13" fill="#7297a3"/>
<polygon points="49,18 51,24 49,23 46,17" fill="#7297a3"/>
<polygon points="51,24 51,29 49,28 49,23" fill="#7297a3"/>
<polygon points="26,5 42,13 38,15 22,7" fill="#89aab3"/>
<polygon points="42,13 46,17 42,19 38,15" fill="#89aab3"/>
<polygon points="46,17 49,23 46,25 42,19" fill="#89aab3"/>
<polygon points="49,23 49,28 47,29 46,25" fill="#89aab3"/>
<polygon points="22,7 38,15 35,19 19,11" fill="#547f92"/>
<polygon points="38,15 42,19 40,23 35,19" fill="#547f92"/>
<polygon points="42,19 46,25 44,28 40,23" fill="#547f92"/>
<polygon points="46,25 47,29 45,32 44,28" fill="#547f92"/>
<polygon points="19,11 35,19 35,30 19,22" fill="#375e76"/>
<polygon points="35,19 40,23 40,32 35,30" fill="#375e76"/>
<polygon points="40,23 44,28 44,33 40,32" fill="#375e76"/>
<polygon points="44,28 45,32 45,33 44,33" fill="#375e76"/>
<polygon points="51,30 51,29 49,28 47,29 45,32 45,33" fill="#284b60"/>
</g>
<g id="casing-details">
<polygon points="19,20 37,29 45,33 45,32 37,28 19,19" fill="#cbb77e"/>
<polygon points="22,20 22,20 22,15 22,15" fill="#466d80"/>
<polygon points="28,23 28,23 28,18 28,18" fill="#466d80"/>
<polygon points="34,26 34,26 34,21 34,21" fill="#466d80"/>
</g>
<g id="recessed-chimney">
<polygon points="38,14 40,12 43,14 43,15 41,16 38,15" fill="#41483f"/>
<polygon points="38,15 41,16 41,15 38,14" fill="#213038"/>
<polygon points="43,15 41,16 41,15 43,14" fill="#41483f"/>
<polygon points="40,12 43,14 41,15 38,14" fill="#303d43"/>
</g>
<g id="coupler">
<polygon points="47,34 49,33 51,34 51,35 49,36 47,35" fill="#5f5a50"/>
<polygon points="47,35 49,36 49,35 47,34" fill="#7f786a"/>
<polygon points="51,35 49,36 49,35 51,34" fill="#5f5a50"/>
<polygon points="49,33 51,34 49,35 47,34" fill="#bbb09a"/>
</g>
</svg>
