<svg xmlns="http://www.w3.org/2000/svg" width="45" height="41" viewBox="0 0 45 41" shape-rendering="crispEdges" data-template="railyard-loco-steam-american-left" data-anchor-x="6" data-anchor-y="22" data-length-m="17">
<title>Ashline rail yard template: S440-US, United States 1880s, facing left</title>
<g id="silhouette-underlays">
<path d="M4,18 6,17 8,18 8,19 6,20 4,19Z" fill="#5f5a50"/>
<path d="M2,19 10,15 44,32 44,33 36,37 2,20Z" fill="#41483f"/>
<path d="M15,11 18,10 21,11 21,13 18,15 15,13Z" fill="#432e37"/>
<path d="M8,6 10,5 12,6 12,11 10,12 8,11Z" fill="#1d2320"/>
<path d="M6,4 11,1 15,3 15,6 10,9 6,7Z" fill="#363b32"/>
<path d="M18,16 28,11 35,15 35,26 25,31 18,27Z" fill="#432e37"/>
<path d="M17,15 28,10 36,14 36,15 25,20 17,16Z" fill="#432e37"/>
<path d="M26,24 36,19 44,23 44,31 34,36 26,32Z" fill="#432e37"/>
<path d="M30,23 36,20 40,22 40,23 34,26 30,24Z" fill="#171c18"/>
<path d="M28,29 32,31 32,32 28,30Z" fill="#bb9760"/>
<path d="M38,35 40,34 42,35 42,36 40,37 38,36Z" fill="#5f5a50"/>
</g>
<g id="coupler">
</g>
<g id="running-gear">
<path d="M4,26 3,26 2,25ZM4,26 2,25 2,24ZM4,26 2,25 2,24ZM3,25 4,26 2,25 2,25ZM3,25 2,25 2,25 2,24ZM3,25 2,25 2,25 2,24ZM3,25 2,25 2,25 2,24ZM3,25 2,25 2,25 2,24ZM2,24 1,23 2,23ZM4,26 2,24 2,23ZM4,26 2,24 2,23ZM3.33333,25 4,26 3,25ZM3.33333,25 3,25 2,24 2,23ZM3.33333,25 3,25 2,24 2,23ZM3,24.5 3.33333,25 3,25 3,25ZM3,24.5 3,25 3,25 2,24 2,23ZM3,24.5 3,25 3,25 2,24 2,23ZM4,26 2,23 2,22ZM4,26 2,23 2,22ZM3.5,25 4,26 3.33333,25ZM3.5,25 3.33333,25 2,23 2,22ZM3.5,25 3.33333,25 2,23 2,22ZM2.5,23 2,23 2,23 2,22ZM3,24 3.5,25 3.33333,25 3,24.5ZM2.5,23 3,24 3,24.5 2,23 2,23ZM2.5,23 3,24 3,24.5 2,23 2,23ZM4,26 2,22 3,23ZM4,26 2,22 3,23ZM3.66667,25 4,26 3.5,25ZM3.66667,25 3.5,25 2,22 3,23ZM3.66667,25 3.5,25 2,22 3,23ZM3,23 2.5,23 2,22 3,23ZM3.66667,25 3.5,25 3,24 3,23 3,23 3,23ZM3,23 3,24 2.5,23 3,23 3,23ZM3,23 3,24 2.5,23 3,23 3,23ZM3,23 4,23 4,24ZM4,25 4,26 3,23ZM3,23 4,24 4,25ZM6,27 5,27 5,26ZM7,26 7,27 6,27ZM7,26 6,27 5,26ZM7,26 5,26 4,25ZM7,26 5,26 4,25ZM7,26 5,26 4,25ZM5,25.33333 5,26 5,26 4,25ZM5,25.33333 7,26 5,26 5,26ZM5,25.33333 7,26 5,26 5,26ZM5,25.33333 7,26 5,26 5,26ZM6,25.66667 7,26 6,26ZM5,25.33333 6,25.66667 6,26 5,26 5,26ZM5,25.33333 6,25.66667 6,26 5,26 5,26ZM7,26 4,25 5,24ZM7,26 4,25 5,24ZM7,26 4,25 5,24ZM5,24 5,25.33333 4,25 5,24ZM7,26 5,25.33333 5,24 5,24ZM7,26 5,25.33333 5,24 5,24ZM6,25 5,25 5,24 5,24ZM6,25 7,26 5,25.33333 5,25ZM6,25 6,25 7,26 6,25.66667ZM6,25 6,25 6,25.66667 5,25.33333 5,25ZM6,25 6,25 6,25.66667 5,25.33333 5,25ZM7,26 5,24 6,24ZM6,24 7,25 7,26ZM14,30 13,30 12,30 10,29 9.5,28 12,28ZM15,28.71429 15,30 14,30 13,29 13,29 13,29 13,29 13,28 13.75,28ZM15,28.71429 13.75,28 15,28 15,28ZM15,28.28571 14.33333,28 15,28 15,28ZM11,27 11,28 9.5,28 9,27 9,25 9,25ZM11,26 10,26 9,25 9,25 9,24 10,23 11,23.5ZM11,25 11,25 11,23.5 12,24 13,25 13,25ZM15,28 15,28 12,25 12,25 13,25 13,25 15,27 15,28ZM13.75,28 13,28 13,27.57143ZM15,28 13.75,28 13,27.57143 13,26 15,28 15,28ZM15,28 14.33333,28 13,27.42857 13,26 15,28 15,28ZM16.66667,29.66667 20.66667,33.66667 20,34 19,34 17,32 16,31 16,29.28571ZM16.66667,29.66667 16,29.28571 16,29 16,29ZM17.25,30 18,30.42857 18,31 17,30ZM17.25,30 18,30 18,30.42857ZM17.09091,29.90909 17,30 17,30 16.66667,29.66667ZM18,29 17.09091,29.90909 16.66667,29.66667 16,29 16,29 16,27 17,27 18,27ZM18,29 17.6,29.4 16,28.71429 16,27 17,27 18,27ZM22,33 20.66667,33.66667 20,33 20,28 20,28 22,30 22,32ZM20,32 20,33 19,32 19,32ZM20,29 18,29 18,29 18,27 19,27 20,28 20,28ZM19,29 19,29 20,29 20,30ZM28,38 27,38 27,37ZM29,37 29,38 28,38ZM29,37 28,38 27,37ZM29,37 27,37 26,36ZM29,37 27,37 26,36ZM29,37 27,37 26,36ZM27,36.33333 27,37 27,37 26,36ZM27,36.33333 29,37 27,37 27,37ZM27,36.33333 29,37 27,37 27,37ZM27,36.33333 29,37 27,37 27,37ZM28,36.66667 29,37 28,37ZM27,36.33333 28,36.66667 28,37 27,37 27,37ZM27,36.33333 28,36.66667 28,37 27,37 27,37ZM29,37 26,36 27,35ZM29,37 26,36 27,35ZM29,37 26,36 27,35ZM27,35 27,36.33333 26,36 27,35ZM29,37 27,36.33333 27,35 27,35ZM29,37 27,36.33333 27,35 27,35ZM28,36 27,36 27,35 27,35ZM28,36 29,37 27,36.33333 27,36ZM28,36 28,36 29,37 28,36.66667ZM28,36 28,36 28,36.66667 27,36.33333 27,36ZM28,36 28,36 28,36.66667 27,36.33333 27,36ZM29,37 27,35 28,35ZM28,35 29,36 29,37ZM32,40 31,40 31,39ZM33,39 33,40 32,40ZM33,39 32,40 31,39ZM33,39 31,39 30,38ZM33,39 31,39 30,38ZM33,39 31,39 30,38ZM31,38.33333 31,39 31,39 30,38ZM31,38.33333 33,39 31,39 31,39ZM31,38.33333 33,39 31,39 31,39ZM31,38.33333 33,39 31,39 31,39ZM32,38.66667 33,39 32,39ZM31,38.33333 32,38.66667 32,39 31,39 31,39ZM31,38.33333 32,38.66667 32,39 31,39 31,39ZM33,39 30,38 31,37ZM33,39 30,38 31,37ZM33,39 30,38 31,37ZM31,37 31,38.33333 30,38 31,37ZM33,39 31,38.33333 31,37 31,37ZM33,39 31,38.33333 31,37 31,37ZM32,38 31,38 31,37 31,37ZM32,38 33,39 31,38.33333 31,38ZM32,38 32,38 33,39 32,38.66667ZM32,38 32,38 32,38.66667 31,38.33333 31,38ZM32,38 32,38 32,38.66667 31,38.33333 31,38ZM33,39 31,37 32,37ZM32,37 33,38 33,39Z" fill="#242b2b"/>
<path d="M3,25 3,25 3,25 2,25 2,24 2,24 2,23 2,23 3,23 3,24 3,24 3,24ZM6,26 6,26 6,26 5,26 5,26 5,25 5,25 5,25 6,25 6,25 6,26 6,26ZM12,28 11,28 11,27ZM11,27 10,26 11,26ZM12,28 11,27 11,26ZM13,29 12,28 11,26ZM13,29 11,26 11,25ZM12.58333,27.33333 13,29 12,27ZM12.58333,27.33333 12,27 11,25 12,25ZM12.56,27.24 12,27 12,27 11,25 12,25ZM12,25 13,26 13,27ZM12.82353,27.47059 13,28 13,29 12.58333,27.33333ZM12.82353,27.47059 12.58333,27.33333 12,25ZM12.77778,27.33333 12.56,27.24 12,25ZM12.82353,27.47059 13,27.57143 13,28ZM12.82353,27.47059 12,25 13,27 13,27.57143ZM12.77778,27.33333 12,25 13,27 13,27.42857ZM18.3,30.6 19,32 18,31 18,30.42857ZM18.3,30.6 18,30.42857 18,30ZM20,31 20,32 19,32ZM19.63636,31.36364 19,32 18.3,30.6ZM20,31 19.63636,31.36364 18.3,30.6 18,30ZM19,30.5 20,31 19.63636,31.36364 19,31ZM17.25,30 17,30 17.09091,29.90909ZM18,30 17.25,30 17.09091,29.90909 18,29ZM18,29.57143 17.6,29.4 18,29ZM20,31 18,30 18,29ZM19,30 18,29.57143 18,29ZM19,30 19,30 20,31 19,30.5ZM20,31 18,29 19,29ZM19,29 20,30 20,31ZM28,37 28,37 28,37 27,37 27,37 27,36 27,36 27,36 28,36 28,36 28,37 28,37ZM32,39 32,39 32,39 31,39 31,39 31,38 31,38 31,38 32,38 32,38 32,39 32,39Z" fill="#95816a"/>
</g>
<g id="frame">
<path d="M34,36 35,35.5 36,36 36,37 34,36ZM25,31 25.5,30.75 26,31 26,32 25,31.5ZM23.25,30 25,31 25,31.5 22,30ZM2,19 6,21 6.66667,22.33333 2,20ZM6,21 9,22.5 9,23.5 6.66667,22.33333ZM9,22.5 10,23 9.33333,23.66667 9,23.5ZM12,24 16,26 16,27 14,26ZM16,26 18,27 16,27 16,27ZM20.33333,28.33333 23.25,30 22,30 22,30Z" fill="#343c35"/>
<path d="M44,33 36,37 36,36 44,32Z" fill="#41483f"/>
<path d="M6,19 3.92,18.04 4,18ZM6,19 4,18 4.66667,17.66667ZM3.06667,18.46667 18,27 2,19ZM3.06667,18.46667 3.92,18.04 6,19 18,24.6 18,27 18,27ZM26,30.5 26,31 25.5,30.75ZM41.5,31.75 42.5,31.25 44,32 43,32.5ZM41.5,31.75 43,32.5 36,36 34.5,35.25Z" fill="#747764"/>
</g>
<g id="coupling-rods">
<path d="M19,31 12,27 12,27 19,30Z" fill="#a0a395"/>
</g>
<g id="boiler">
</g>
<g id="boiler">
<path d="M19.37838,13.91892 19.28571,13.85714 21.64516,12.67742 21.8589,12.79141ZM13.8,8.6 13.90323,8.54839 14.33333,8.77778ZM13.8,8.6 12,8 12,7.8 12.23529,7.65882 13.90323,8.54839ZM16.8,10.4 12,8 14.33333,8.77778 17.15385,10.28205ZM13.5,8.75 16.8,10.4 15,11 12.42857,9.28571ZM12,8 13.5,8.75 12.42857,9.28571 12,9ZM21,13 21,12.33333 21.64516,12.67742ZM18,14.54545 18,14.5 19.28571,13.85714 19.37838,13.91892ZM17.52381,14.7619 17,15 6.45455,9.72727 6.90909,9.45455ZM17,15 17,15.13333 6,10 6.45455,9.72727ZM8,10 6.90909,9.45455 8,8.8ZM10,10.5 10.71429,10.14286 17.59459,14.72973 17.52381,14.7619 10,11ZM10,10.5 10,11 8,10 8,9.5ZM12.42857,9.28571 15,11 15,13 10.71429,10.14286ZM12,9 12.42857,9.28571 12,9.5Z" fill="#95666a"/>
<path d="M18,16.5 18,20.46667 4,13 5.75,10.375ZM17,16 5.75,10.375 6,10 17,15.13333Z" fill="#77525a"/>
<path d="M18,24.46667 4,17 4,13 18,20.46667ZM15,11 18,13 18,14.54545 17.59459,14.72973 15,13Z" fill="#593d49"/>
<path d="M18,24.53846 18,24.6 6,19ZM4.75,17.75 4,17 15.25,23ZM18,24.53846 6,19 4.75,17.75 15.25,23 18,24.46667Z" fill="#3e2b33"/>
<path d="M21,13 21,13 18,14.5 18,13 21,11Z" fill="#432e37"/>
<path d="M18,10 21,11 18,13 15,11Z" fill="#bb9760"/>
<path d="M8.72727,8.36364 8,8.8 8,8ZM8,9.5 8,8.8 8.72727,8.36364 10,9 10,10.5Z" fill="#272f2b"/>
<path d="M12,7.8 12,9.5 10,10.5 10,9Z" fill="#1d2320"/>
</g>
<g id="spark-arrestor">
<path d="M6,4 10,6 10,9 6,7Z" fill="#494f44"/>
<path d="M15,6 10,9 10,6 15,3Z" fill="#363b32"/>
<path d="M11,1 15,3 10,6 6,4Z" fill="#bb9760"/>
</g>
<g id="cowcatcher">
<path d="M2,22.6 1,23 2,22.5ZM3.5,22 2.42857,22.42857 2.375,22.375ZM4.88889,21.44444 3.5,22 2.375,22.375 2.33333,22.33333 4.5,21.25Z" fill="#bb9760"/>
<path d="M2,24 1,24 1,23 1,23ZM2,23 1,23 1,23 1,23 1.78947,22.68421ZM2,23 2,23 1.78947,22.68421 2,22.6ZM6,22 6,23 3,23 2.42857,22.42857 4.88889,21.44444ZM4,24 4,23 6,23 6,24 4,24ZM8.15385,23.07692 6,24 6,22Z" fill="#836a43"/>
</g>
<g id="cab">
<path d="M18,21 25,24.5 25,27 18,27 18,27ZM20,17.5 20,22 18,21 18,16.5ZM20,19 20,17.5 25,20 25,20 25,21.5ZM24,24 24,21 25,21.5 25,24.5ZM19,27 25,27 25,31 20.33333,28.33333ZM17,15 25,19 25,20 17,16Z" fill="#593d49"/>
<path d="M31.80952,16.90476 35,15.45455 35,18.5ZM31.80952,16.90476 35,18.5 35,19.5 26,24 25,23.5 25,20 25,20ZM26,24 26,30.5 25,31 25,23.5ZM36,15 25,20 25,19 36,14Z" fill="#432e37"/>
<path d="M24,24 20,22 20,19 24,21Z" fill="#dec38a"/>
<path d="M28,10 36,14 25,19 17,15Z" fill="#95666a"/>
</g>
<g id="tender">
<path d="M26,28 26,24 34,28 34,32ZM32,31 34,32 34,36 32,35ZM26,29 32,32 32,35 26,32ZM28,30 26,29 26,28 28,29Z" fill="#593d49"/>
<path d="M44,31 43,31.5 35,27.5 44,23ZM35,35.5 34,36 34,35ZM42.5,31.25 34.5,35.25 34,35 34,28 35,27.5Z" fill="#432e37"/>
<path d="M30,22 30,26 26,24ZM35,25.5 42,22 44,23 37,26.5ZM34,21 30,23 30,23 30,22 34,20ZM40,22 35,19.5 36,19 41,21.5ZM36,20 34,21 34,20 35,19.5ZM40,23 40,22 41,21.5 42,22ZM34,26 35,25.5 37,26.5 34,28 34,28ZM30,24 34,26 34,28 30,26Z" fill="#95666a"/>
<path d="M30,23 34,25 34,26 30,24Z" fill="#1d241e"/>
<path d="M40,23 34,26 34,25 40,22Z" fill="#171c18"/>
<path d="M36,20 40,22 34,25 30,23Z" fill="#30352e"/>
<path d="M28,29 32,31 32,32 28,30Z" fill="#bb9760"/>
</g>
<g id="coupler">
<path d="M38,36 39,35.5 40,36 40,37 38,36Z" fill="#7f786a"/>
<path d="M42,36 40,37 40,36 42,35Z" fill="#5f5a50"/>
<path d="M41,34.5 42,35 40,36 39,35.5Z" fill="#bbb09a"/>
</g>
</svg>
