<svg xmlns="http://www.w3.org/2000/svg" width="40" height="31" viewBox="0 0 40 31" shape-rendering="crispEdges" data-template="railyard-car-tanker-banded" data-anchor-x="6" data-anchor-y="14" data-length-m="14">
<title>Ashline rail yard template: Banded tank wagon, Soviet Union 1960s</title>
<g id="coupler">
<polygon points="4,10 6,9 8,10 8,11 6,12 4,11" fill="#5f5a50"/>
<polygon points="4,11 6,12 6,11 4,10" fill="#7f786a"/>
<polygon points="8,11 6,12 6,11 8,10" fill="#5f5a50"/>
<polygon points="6,9 8,10 6,11 4,10" fill="#bbb09a"/>
</g>
<g id="trucks">
<polygon points="3,16 15,10 21,13 21,16 9,22 3,19" fill="#1a1e20"/>
<polygon points="3,19 9,22 9,19 3,16" fill="#111416"/>
<polygon points="21,16 9,22 9,19 21,13" fill="#1a1e20"/>
<polygon points="15,10 21,13 9,19 3,16" fill="#383c3b"/>
<polygon points="19,24 31,18 37,21 37,24 25,30 19,27" fill="#1a1e20"/>
<polygon points="19,27 25,30 25,27 19,24" fill="#111416"/>
<polygon points="37,24 25,30 25,27 37,21" fill="#1a1e20"/>
<polygon points="31,18 37,21 25,27 19,24" fill="#383c3b"/>
</g>
<g id="underframe">
<polygon points="1,12 11,7 39,21 39,23 29,28 1,14" fill="#1e2022"/>
<polygon points="1,14 29,28 29,26 1,12" fill="#232626"/>
<polygon points="39,23 29,28 29,26 39,21" fill="#1e2022"/>
<polygon points="11,7 39,21 29,26 1,12" fill="#454440"/>
</g>
<g id="body">
</g>
<g id="tank-far">
<polygon points="12,4 36,16 35,13 11,1" fill="#8a7957"/>
</g>
<g id="tank-crown">
<polygon points="11,1 35,13 30,14 6,2" fill="#bdad83"/>
</g>
<g id="tank-near-shoulder">
<polygon points="6,2 30,14 28,17 4,5" fill="#a7956c"/>
</g>
<g id="tank-near-side">
<polygon points="4,5 28,17 28,21 4,9" fill="#8a7957"/>
</g>
<g id="tank-underside">
<polygon points="4,9 28,21 30,22 6,10" fill="#62573f"/>
</g>
<g id="tank-end">
<polygon points="28,21 28,17 30,14 35,13 36,16 34,20 30,22" fill="#8a7957"/>
<polygon points="8,6 9,7 9,13 8,12" fill="#41483f"/>
<polygon points="8,12 9,13 9,7 8,6" fill="#454d43"/>
<polygon points="9,13 9,13 9,7 9,7" fill="#41483f"/>
<polygon points="8,6 9,7 9,7 8,6" fill="#454d43"/>
<polygon points="23,14 24,14 24,20 23,20" fill="#41483f"/>
<polygon points="23,20 24,20 24,14 23,14" fill="#454d43"/>
<polygon points="24,20 24,20 24,14 24,14" fill="#41483f"/>
<polygon points="23,14 24,14 24,14 23,14" fill="#454d43"/>
<polygon points="18,6 22,4 25,6 25,8 21,10 18,8" fill="#41483f"/>
<polygon points="18,8 21,10 21,8 18,6" fill="#8a7957"/>
<polygon points="25,8 21,10 21,8 25,6" fill="#41483f"/>
<polygon points="22,4 25,6 21,8 18,6" fill="#bdad83"/>
</g>
<g id="coupler">
<polygon points="32,24 34,23 36,24 36,25 34,26 32,25" fill="#5f5a50"/>
<polygon points="32,25 34,26 34,25 32,24" fill="#7f786a"/>
<polygon points="36,25 34,26 34,25 36,24" fill="#5f5a50"/>
<polygon points="34,23 36,24 34,25 32,24" fill="#bbb09a"/>
</g>
</svg>
